<svg width="18" height="24" fill="none" xmlns="http://www.w3.org/2000/svg"><path d="M15.11 6.644h-.883V5.368A5.375 5.375 0 0 0 8.858 0 5.375 5.375 0 0 0 3.49 5.369v1.275h-.884A2.609 2.609 0 0 0 0 9.249v12.145A2.609 2.609 0 0 0 2.606 24H15.11a2.609 2.609 0 0 0 2.605-2.606V9.25a2.609 2.609 0 0 0-2.605-2.605zM5.19 5.368A3.673 3.673 0 0 1 8.858 1.7a3.673 3.673 0 0 1 3.669 3.668v1.276H5.19V5.368zm10.827 16.026c0 .5-.407.906-.906.906H2.606a.907.907 0 0 1-.906-.906V9.25c0-.5.406-.905.906-.905h.883v1.192a1.29 1.29 0 0 0-.449.975 1.3 1.3 0 1 0 2.599 0c0-.39-.176-.737-.45-.975V8.344h7.338v1.192a1.29 1.29 0 0 0-.45.975 1.3 1.3 0 1 0 2.6 0c0-.39-.177-.737-.45-.975V8.344h.884c.5 0 .905.406.905.905v12.145z" fill="#454545"/></svg>