<svg width="52" height="52" viewBox="0 0 52 52" fill="none" xmlns="http://www.w3.org/2000/svg">
<g opacity="0.24">
<path d="M31.1096 39.8216C29.8091 40.3669 29.2638 41.919 29.8511 43.1775L31.9066 47.4982C32.4939 48.7143 33.9201 49.26 35.1786 48.7143C38.7442 47.2041 41.8065 45.2325 44.2395 42.8414C47.2179 40.0313 49.2314 36.8013 50.3221 33.2356C51.4127 29.6276 52 24.72 52 18.4697V5.59144C52 4.20713 50.8674 3.07452 49.4831 3.07452H32.9972C31.6129 3.07452 30.4803 4.20713 30.4803 5.59144V22.0773C30.4803 23.462 31.6129 24.5942 32.9972 24.5942H40.8836C40.7997 28.8314 39.7929 32.2288 37.9472 34.7881C36.437 36.8428 34.1718 38.5207 31.1096 39.8216Z" fill="#F6623E"/>
<path d="M1.4938 39.8215C0.193386 40.3668 -0.351526 41.9189 0.235336 43.1774L2.29082 47.4557C2.8781 48.6722 4.30436 49.2175 5.56282 48.6722C9.08651 47.1621 12.1072 45.1905 14.5818 42.8413C17.5606 39.9888 19.6156 36.7588 20.7067 33.1931C21.7974 29.6699 22.3423 24.7615 22.3423 18.4692V5.59092C22.3423 4.20661 21.2097 3.074 19.8254 3.074H3.33954C1.95523 3.074 0.822618 4.20661 0.822618 5.59092V22.0767C0.822618 23.4615 1.95523 24.5937 3.33954 24.5937H11.2678C11.1839 28.8309 10.1768 32.2283 8.33143 34.7876C6.82128 36.8427 4.55605 38.5206 1.4938 39.8215Z" fill="#F6623E"/>
</g>
</svg>
