<svg width="62" height="62" viewBox="0 0 62 62" fill="none" xmlns="http://www.w3.org/2000/svg">
<g clip-path="url(#clip0_8_64)">
<path d="M34.4206 30.2092L32.0089 26.3502C31.6341 25.7508 30.6437 25.7508 30.2688 26.3502L27.8572 30.2092C27.0995 31.4201 27.0614 32.8885 27.7529 34.1373C28.4454 35.3862 29.7105 36.132 31.1388 36.132C32.5672 36.132 33.8321 35.3862 34.5248 34.1373C35.2164 32.8885 35.1784 31.4201 34.4206 30.2092ZM32.7297 33.1421C32.404 33.7295 31.8096 34.0793 31.1391 34.0793C30.4686 34.0793 29.8742 33.7295 29.5484 33.1421C29.2237 32.5558 29.2417 31.8662 29.5976 31.2978L31.1392 28.831L32.6808 31.2978C33.0364 31.866 33.0545 32.5556 32.7297 33.1421Z" fill="#454545"/>
<path d="M47.5973 4.86327C47.5973 3.62031 47.1132 2.45061 46.2341 1.57163C44.4189 -0.241621 41.467 -0.242647 39.6538 1.56868L36.2741 4.9187L34.9438 3.58836L33.4925 5.03968L35.5452 7.09247L35.846 7.3932L30.4133 12.8258C30.2208 13.0182 30.1125 13.2788 30.1125 13.5514V16.6306C30.1125 17.1979 30.5716 17.657 31.1389 17.657H34.2181C34.4908 17.657 34.7513 17.5487 34.9438 17.3563L40.3765 11.9236L40.6772 12.2243L42.73 14.2771L44.1814 12.8256L42.8575 11.5017L46.2342 8.15478C47.1132 7.27683 47.5973 6.10713 47.5973 4.86327ZM33.7932 15.6042H32.1653V13.9764L37.2973 8.84439L38.9252 10.4722L33.7932 15.6042ZM44.7857 6.70051L41.4059 10.0503L41.1023 9.74659L38.0231 6.66741L37.7254 6.36976L41.1023 3.02295C42.1166 2.00862 43.7684 2.00862 44.7829 3.02295C45.274 3.5151 45.5447 4.16866 45.5447 4.86327C45.5445 5.55878 45.2739 6.21233 44.7857 6.70051Z" fill="#454545"/>
<path d="M61.9247 30.923C61.8806 30.525 61.609 30.1892 61.2291 30.063C60.8302 29.9297 51.3751 26.8655 44.8509 32.3003C42.0272 34.6538 40.9947 37.4121 40.7347 39.8209L39.3501 36.9261V25.6929C40.545 25.2688 41.4029 24.1272 41.4029 22.7891C41.4029 21.0912 40.0216 19.7099 38.3237 19.7099H23.9542C22.2563 19.7099 20.8751 21.0912 20.8751 22.7891C20.8751 24.1272 21.7331 25.2688 22.9278 25.6929V36.9261L22.4275 37.9724C22.4995 34.9602 21.904 31.4963 19.6572 28.3511C14.3138 20.8696 2.97337 19.758 2.49327 19.714C1.99008 19.6659 1.54104 19.9866 1.40979 20.4667C1.28046 20.9418 -1.72648 32.1871 1.45687 39.6154C4.76455 47.3333 15.2961 47.4226 15.7432 47.4226C16.1131 47.4226 16.4539 47.2241 16.6363 46.9024C16.8188 46.5796 16.8138 46.1847 16.6232 45.8679L13.5441 40.7359C13.4247 40.5374 13.2414 40.3841 13.0248 40.3029L8.39798 38.5679L10.7796 38.171C11.0933 38.1189 11.365 37.9244 11.5153 37.6447C11.6655 37.365 11.6777 37.0323 11.5494 36.7416L9.15482 31.3551L10.9962 32.8285C11.4042 33.1532 11.9934 33.1232 12.3633 32.7523L13.6904 31.4251V37.1586C13.6904 37.351 13.7446 37.5395 13.8468 37.7028L18.7807 45.597L14.5485 54.4458C13.7837 56.0456 13.892 57.8959 14.8372 59.3964C15.7824 60.8959 17.4052 61.792 19.1783 61.792H43.1C44.8731 61.792 46.496 60.8959 47.4412 59.3964C48.3864 57.8959 48.4946 56.0456 47.7298 54.4458L43.5492 45.7049L47.2578 42.0289C47.3722 41.9156 47.4584 41.7773 47.5084 41.625L48.5879 38.3875L48.641 38.5459C48.7312 38.8175 48.9318 39.0401 49.1944 39.1573C49.456 39.2746 49.7567 39.2777 50.0183 39.1644L52.864 37.9455L45.7755 45.7418C45.569 45.9692 45.4758 46.277 45.5199 46.5807C45.564 46.8844 45.7415 47.152 46.004 47.3105C46.9221 47.8658 48.5248 48.4412 50.4113 48.4412C52.2696 48.4412 54.4046 47.8819 56.4303 46.1949C62.9371 40.7709 61.9689 31.3229 61.9247 30.923ZM15.7431 36.8637V28.9473C15.7431 28.5324 15.4936 28.1575 15.1096 27.999C14.7257 27.8387 14.2846 27.9278 13.9909 28.2215L11.5612 30.6512L7.14694 27.119C6.77705 26.8243 6.25385 26.8193 5.87793 27.108C5.50407 27.3977 5.37474 27.9049 5.56719 28.3379L9.13454 36.3636L4.2842 37.1725C3.82617 37.2488 3.4763 37.6236 3.43127 38.0857C3.38623 38.5477 3.65784 38.9827 4.09175 39.1462L11.9682 42.0991L13.8395 45.2184C10.8916 44.8365 5.3537 43.4995 3.343 38.8075C0.920327 33.1542 2.55717 24.5994 3.17967 21.873C5.85394 22.28 13.9878 23.9458 17.9872 29.5439C21.3511 34.2539 20.4088 40.0323 19.5759 42.9963L15.7431 36.8637ZM45.7049 58.3017C45.1376 59.2019 44.1633 59.7391 43.0998 59.7391H19.1782C18.1147 59.7391 17.1404 59.2018 16.5731 58.3017C16.2562 57.7991 16.1136 57.2309 16.1141 56.6599H28.4187C28.7444 56.6599 29.0512 56.5045 29.2446 56.2429C29.4381 55.9803 29.4952 55.6415 29.399 55.3298C29.2476 54.8406 29.3188 54.3255 29.5975 53.8784L31.1391 51.4116L32.6766 53.8723C32.862 54.172 32.9553 54.4957 32.9553 54.8325C32.9553 55.0069 32.9312 55.1664 32.8822 55.3207C32.782 55.6325 32.837 55.9732 33.0305 56.2388C33.224 56.5035 33.5316 56.6598 33.8594 56.6598H46.164C46.1643 57.2309 46.0218 57.7991 45.7049 58.3017ZM45.5307 54.6071H35.0009C34.9628 53.9716 34.7654 53.3491 34.4206 52.7899L32.1654 49.1811V48.4487H33.1918C36.0214 48.4487 38.3237 46.1464 38.3237 43.3168C38.3237 42.7494 37.8647 42.2904 37.2973 42.2904H35.2446C34.0847 42.2904 33.0258 42.6917 32.1654 43.3431V43.3168H31.7303C30.9361 41.5075 29.1324 40.2376 27.0334 40.2376H24.9806C24.4133 40.2376 23.9542 40.6967 23.9542 41.264C23.9542 44.0936 26.2566 46.396 29.0862 46.396H30.1126V49.1811L27.8574 52.7899C27.5095 53.3472 27.3131 53.9727 27.2771 54.6071H16.7473L24.8804 37.6014C24.9466 37.4631 24.9806 37.3117 24.9806 37.1584V25.8681H28.0598V23.8153H23.9542C23.3879 23.8153 22.9278 23.3552 22.9278 22.7889C22.9278 22.2226 23.3879 21.7625 23.9542 21.7625H38.3237C38.89 21.7625 39.3501 22.2226 39.3501 22.7889C39.3501 23.3552 38.89 23.8153 38.3237 23.8153H34.2182V25.8681H37.2973V37.1584C37.2973 37.3117 37.3315 37.4631 37.3975 37.6014L45.5307 54.6071ZM32.3408 46.396C32.7648 45.2011 33.9064 44.3432 35.2446 44.3432H36.0956C35.6715 45.538 34.5299 46.396 33.1918 46.396H32.3408ZM29.9372 44.3432H29.0862C27.748 44.3432 26.6064 43.4851 26.1824 42.2904H27.0334C28.3716 42.2904 29.5132 43.1485 29.9372 44.3432ZM55.1159 44.6168C52.4266 46.8581 49.7524 46.5303 48.2609 46.0592L57.5586 35.8323C57.8833 35.4745 57.9154 34.9392 57.6348 34.5464C57.3541 34.1515 56.835 34.0082 56.3949 34.1986L50.2355 36.8377L49.5609 34.817C49.4216 34.3979 49.0296 34.1153 48.5877 34.1153C48.1457 34.1153 47.7537 34.3979 47.6144 34.817L45.6388 40.7437L42.9275 43.431C42.4714 41.2339 42.2981 37.1002 46.166 33.8777C50.9 29.9304 57.7931 31.2767 59.9271 31.8259C60.0093 33.964 59.8569 40.6666 55.1159 44.6168Z" fill="#454545"/>
<path d="M23.0342 44.9105L20.9816 49.0159L22.8176 49.9339L24.8702 45.8285L23.0342 44.9105Z" fill="#454545"/>
<path d="M19.955 51.0709L18.9287 53.1235L20.7647 54.0415L21.7911 51.9889L19.955 51.0709Z" fill="#454545"/>
<path d="M20.875 0.208252C17.4791 0.208252 14.7167 2.97066 14.7167 6.36661C14.7167 9.76255 17.4791 12.525 20.875 12.525C24.271 12.525 27.0334 9.76255 27.0334 6.36661C27.0334 2.97066 24.271 0.208252 20.875 0.208252ZM20.875 10.4722C18.6108 10.4722 16.7695 8.63083 16.7695 6.36661C16.7695 4.10238 18.6108 2.26104 20.875 2.26104C23.1392 2.26104 24.9806 4.10238 24.9806 6.36661C24.9806 8.63083 23.1394 10.4722 20.875 10.4722Z" fill="#454545"/>
<path d="M50.6404 16.6304C48.3761 16.6304 46.5348 18.4717 46.5348 20.7359C46.5348 23.0002 48.3761 24.8415 50.6404 24.8415C52.9046 24.8415 54.7459 23.0002 54.7459 20.7359C54.7459 18.4717 52.9047 16.6304 50.6404 16.6304ZM50.6404 22.7887C49.5088 22.7887 48.5876 21.8675 48.5876 20.7359C48.5876 19.6043 49.5088 18.6832 50.6404 18.6832C51.772 18.6832 52.6931 19.6043 52.6931 20.7359C52.6931 21.8675 51.772 22.7887 50.6404 22.7887Z" fill="#454545"/>
<path d="M59.8779 2.26104V0.208252H57.8251V2.26104H55.7723V4.31382H57.8251V6.36661H59.8779V4.31382H61.9307V2.26104H59.8779Z" fill="#454545"/>
<path d="M19.8486 5.34009H17.7958V7.39287H19.8486V5.34009Z" fill="#454545"/>
<path d="M7.53184 8.41924V6.36646H5.47905V8.41924H3.42627V10.472H5.47905V12.5248H7.53184V10.472H9.58462V8.41924H7.53184Z" fill="#454545"/>
</g>
<defs>
<clipPath id="clip0_8_64">
<rect width="62" height="62" fill="white"/>
</clipPath>
</defs>
</svg>
