<svg width="62" height="62" viewBox="0 0 62 62" fill="none" xmlns="http://www.w3.org/2000/svg">
<g clip-path="url(#clip0_8_51)">
<path d="M29.9537 23.6401C30.3577 24.0237 31.0294 23.9461 31.3364 23.4831L37.3811 14.3603C37.6583 13.9422 37.5438 13.3783 37.1257 13.1011C36.708 12.8244 36.1442 12.9389 35.867 13.3566L30.4197 21.5777L27.3928 18.7036C27.029 18.3583 26.4543 18.3735 26.1085 18.7372C25.7632 19.101 25.7784 19.6757 26.1421 20.021C26.1417 20.021 29.9504 23.6373 29.9537 23.6401V23.6401Z" fill="#454545"/>
<path d="M30.5733 37.4927C30.7469 37.5722 30.939 37.6143 31.1301 37.6143H31.1376C31.332 37.6133 31.5269 37.5689 31.701 37.4856C45.5114 30.9177 47.8519 16.7469 48.2398 12.5602C48.3287 11.6042 47.7904 10.714 46.9006 10.345C44.1514 9.2036 42.2825 6.65117 42.0233 3.6839C41.9433 2.77049 41.1629 2.05859 40.2433 2.05859H40.2324L21.6266 2.16786C20.6886 2.17307 19.9265 2.88591 19.8546 3.82581C19.6257 6.79402 17.7842 9.3649 15.0487 10.5352C14.1679 10.9117 13.6429 11.8066 13.7432 12.7621C14.1802 16.9441 16.6868 31.087 30.5733 37.4927V37.4927ZM15.763 12.2049C19.1172 10.7707 21.3768 7.62181 21.6639 3.9838L40.2163 3.875C40.546 7.50498 42.8378 10.625 46.2043 12.0223C46.3548 12.0853 46.446 12.2338 46.4314 12.3927C46.0672 16.3164 43.8879 29.5464 31.1267 35.7463C18.2922 29.6973 15.9597 16.4929 15.5492 12.5734C15.5326 12.4149 15.6187 12.2669 15.763 12.2049Z" fill="#454545"/>
<path d="M18.0306 17.2397C18.1404 17.6437 18.6527 18.0136 19.1455 17.8778C19.629 17.7444 19.9151 17.2473 19.7836 16.7634C19.5523 15.911 19.3579 15.0468 19.2051 14.1906C21.6724 12.5828 23.5035 10.1832 24.4018 7.38051L37.5177 7.30341C38.4486 10.0947 40.3076 12.4735 42.7938 14.052C42.6515 14.9106 42.467 15.7776 42.2451 16.6333C42.1193 17.1191 42.4112 17.6148 42.8965 17.7407C43.3827 17.8665 43.878 17.5746 44.0038 17.0888C44.264 16.0841 44.4759 15.0643 44.6329 14.0577C44.7209 13.4953 44.4636 12.9423 43.9783 12.649C41.6624 11.2503 39.9505 9.05596 39.1582 6.47041C38.9799 5.88907 38.4316 5.48511 37.8233 5.48511H37.8148L24.083 5.56552C23.4709 5.56931 22.9231 5.98131 22.7514 6.56691C21.9898 9.16144 20.3035 11.3757 18.0041 12.8018C17.5221 13.1003 17.2719 13.6561 17.366 14.2181C17.5354 15.2223 17.7586 16.2388 18.0306 17.2397V17.2397Z" fill="#454545"/>
<path d="M42.168 19.9328C41.7045 19.7407 41.1737 19.9621 40.9821 20.4256C38.8833 25.5125 35.5608 29.38 31.104 31.9253C26.6127 29.4291 23.2419 25.5944 21.084 20.5236C20.8872 20.0624 20.3536 19.8476 19.8924 20.0439C19.4308 20.2402 19.216 20.7738 19.4123 21.235C21.7675 26.7684 25.4779 30.94 30.4404 33.6329C30.6494 33.7469 30.8784 33.8032 31.1069 33.8032C31.341 33.8032 31.5747 33.7441 31.7875 33.6253C36.7126 30.8775 40.371 26.6695 42.6614 21.1181C42.853 20.6546 42.6321 20.1239 42.168 19.9328Z" fill="#454545"/>
<path d="M5.82726 48.5312C4.05579 48.5312 2.61401 49.9725 2.61401 51.7445C2.61401 53.5164 4.05579 54.9577 5.82726 54.9577C7.5992 54.9577 9.04097 53.5164 9.04097 51.7445C9.04097 49.9725 7.59967 48.5312 5.82726 48.5312V48.5312ZM5.82726 53.1413C5.05718 53.1413 4.43042 52.515 4.43042 51.7445C4.43042 50.9744 5.05718 50.3477 5.82726 50.3477C6.59781 50.3477 7.22457 50.9744 7.22457 51.7445C7.22457 52.515 6.59781 53.1413 5.82726 53.1413Z" fill="#454545"/>
<path d="M61.3486 39.6398C60.1845 37.9294 57.8407 37.4762 56.1241 38.6294L44.2512 46.5757L41.7168 46.4334L41.652 45.7844C41.3994 43.2428 39.4567 41.2178 36.9279 40.8602C36.9118 40.8579 36.8962 40.856 36.8801 40.8545L24.0868 39.7335C23.654 39.6658 22.2685 39.268 18.4616 37.0846C16.4829 35.9498 14.2536 35.3093 11.9888 35.2223V32.8463C11.9888 31.6538 11.0191 30.6841 9.82657 30.6841H2.16219C0.970169 30.6841 0 31.6543 0 32.8463V56.2472C0 57.4392 0.970169 58.4094 2.16219 58.4094H9.82657C11.0186 58.4094 11.9888 57.4392 11.9888 56.2472V55.6024L23.1719 59.8374C23.1965 59.8469 24.1047 60.1865 25.7745 60.029C25.7792 60.0285 44.3563 57.3503 44.3563 57.3503C44.361 57.3498 44.3652 57.3488 44.37 57.3479C45.9574 57.0948 47.4545 56.4236 48.7 55.408C48.7114 55.3986 48.7222 55.3891 48.7331 55.3796L60.7342 44.5857C62.1485 43.3299 62.4129 41.2036 61.3486 39.6398V39.6398ZM59.5237 43.2315L47.5354 54.014C46.543 54.8186 45.352 55.3508 44.0899 55.5532L25.5219 58.2301C25.5177 58.2306 25.5115 58.2315 25.5058 58.2324C25.503 58.2329 25.4997 58.2334 25.4969 58.2339C24.9415 58.3214 24.363 58.2845 23.7769 58.1241L11.9888 53.6602V43.2882C11.9888 42.7864 11.582 42.38 11.0805 42.38C10.5787 42.38 10.1723 42.7864 10.1723 43.2882V56.2472C10.1723 56.4378 10.0172 56.5929 9.82657 56.5929H2.16219C1.97156 56.5929 1.81641 56.4378 1.81641 56.2472V32.8463C1.81641 32.6556 1.97156 32.5005 2.16219 32.5005H9.82657C10.0172 32.5005 10.1723 32.6556 10.1723 32.8463V39.1857C10.1723 39.6876 10.5791 40.0939 11.0805 40.0939C11.5824 40.0939 11.9888 39.6871 11.9888 39.1857V37.0406C13.9371 37.1266 15.8538 37.6829 17.5576 38.6607C22.1493 41.294 23.4316 41.4756 23.8531 41.5352C23.8692 41.5376 23.8848 41.539 23.9009 41.5409L36.6957 42.662C38.3825 42.9112 39.6757 44.266 39.8446 45.9641L39.8928 46.448L22.7633 47.5057C22.7514 47.5048 22.7396 47.5038 22.7292 47.5029C22.1739 47.4527 21.6725 47.1902 21.3163 46.7635C20.9951 46.378 20.4223 46.326 20.0372 46.6476C19.6517 46.9688 19.5997 47.5417 19.9213 47.9267C20.5878 48.7261 21.5282 49.2043 22.5674 49.3122C23.1284 49.3708 40.8918 48.2063 40.8918 48.2063L44.4527 48.4063C44.6495 48.4177 44.8449 48.3638 45.0085 48.254L57.1359 40.1379C58.0266 39.5395 59.2427 39.7742 59.8468 40.6615C60.3988 41.4733 60.2616 42.5763 59.5237 43.2315V43.2315Z" fill="#454545"/>
</g>
<defs>
<clipPath id="clip0_8_51">
<rect width="62" height="62" fill="white"/>
</clipPath>
</defs>
</svg>
